<svg xmlns="http://www.w3.org/2000/svg" viewBox="0 0 48 48" fill="none" aria-hidden="true">
  <circle cx="24" cy="24" r="24" fill="#26A17B"/>
  <path fill="#fff" d="M27.1 26.2c-.2 1.3-1.4 2.2-3.1 2.2-2.3 0-3.7-1.4-3.7-3.7V14.8h-2.6v10.1c0 3.5 2.2 5.7 6.1 5.7 3.4 0 5.6-1.7 6-4.4h-2.7Z"/>
  <path fill="#fff" d="M20.3 21.8c.2-1.3 1.4-2.2 3.1-2.2 2.3 0 3.7 1.4 3.7 3.7v10.1h2.6V23.3c0-3.5-2.2-5.7-6.1-5.7-3.4 0-5.6 1.7-6 4.4h2.7Z"/>
  <rect x="14" y="22" width="20" height="2.4" rx="1.2" fill="#fff"/>
</svg>
